<svg width="80" height="80" viewBox="0 0 80 80" fill="none" xmlns="http://www.w3.org/2000/svg">
<rect width="80" height="80" rx="12" fill="url(#paint0_linear_7_114)"/>
<path d="M46.6667 25C47.5076 24.9997 48.3176 25.3006 48.9342 25.8424C49.5509 26.3841 49.9286 27.1266 49.9917 27.9211L50 28.1579V36.0526H52.5C53.1215 36.0527 53.7207 36.272 54.1807 36.6678C54.6407 37.0637 54.9287 37.6076 54.9883 38.1937L55 38.4211V50.2632C55.0001 51.4714 54.5128 52.634 53.6379 53.513C52.7629 54.3921 51.5665 54.9212 50.2933 54.9921L50 55H28.3333C27.4924 55.0003 26.6824 54.6994 26.0658 54.1576C25.4491 53.6159 25.0714 52.8734 25.0083 52.0789L25 51.8421V28.1579C24.9997 27.3612 25.3173 26.5938 25.8892 26.0097C26.461 25.4255 27.2447 25.0676 28.0833 25.0079L28.3333 25H46.6667ZM51.6667 39.2105H50V51.8421C50.442 51.8421 50.866 51.6758 51.1785 51.3796C51.4911 51.0835 51.6667 50.6819 51.6667 50.2632V39.2105ZM38.3333 40.7895H33.3333C32.9085 40.7899 32.4999 40.944 32.1911 41.2203C31.8822 41.4966 31.6963 41.8741 31.6714 42.2759C31.6465 42.6776 31.7845 43.0732 32.0571 43.3818C32.3298 43.6905 32.7165 43.8888 33.1383 43.9363L33.3333 43.9474H38.3333C38.7581 43.9469 39.1667 43.7928 39.4756 43.5166C39.7845 43.2403 39.9704 42.8627 39.9953 42.461C40.0202 42.0592 39.8822 41.6636 39.6096 41.355C39.3369 41.0464 38.9502 40.8481 38.5283 40.8005L38.3333 40.7895ZM41.6667 32.8947H33.3333C32.8913 32.8947 32.4674 33.0611 32.1548 33.3572C31.8423 33.6533 31.6667 34.0549 31.6667 34.4737C31.6667 34.8924 31.8423 35.2941 32.1548 35.5902C32.4674 35.8863 32.8913 36.0526 33.3333 36.0526H41.6667C42.1087 36.0526 42.5326 35.8863 42.8452 35.5902C43.1577 35.2941 43.3333 34.8924 43.3333 34.4737C43.3333 34.0549 43.1577 33.6533 42.8452 33.3572C42.5326 33.0611 42.1087 32.8947 41.6667 32.8947Z" fill="#004DD8"/>
<defs>
<linearGradient id="paint0_linear_7_114" x1="0" y1="0" x2="80" y2="80" gradientUnits="userSpaceOnUse">
<stop offset="0.29158" stop-color="#B5E0FF"/>
<stop offset="1" stop-color="#8FADF9"/>
</linearGradient>
</defs>
</svg>
