<svg width="80" height="80" viewBox="0 0 80 80" fill="none" xmlns="http://www.w3.org/2000/svg">
<rect width="80" height="80" rx="12" fill="url(#paint0_linear_7_135)"/>
<path d="M52.2727 46.8182V34.5455H33.1818V46.8182H52.2727ZM52.2727 27.7273C52.996 27.7273 53.6897 28.0146 54.2012 28.5261C54.7127 29.0375 55 29.7312 55 30.4545V46.8182C55 47.5415 54.7127 48.2352 54.2012 48.7467C53.6897 49.2581 52.996 49.5455 52.2727 49.5455H33.1818C32.4585 49.5455 31.7648 49.2581 31.2533 48.7467C30.7419 48.2352 30.4545 47.5415 30.4545 46.8182V30.4545C30.4545 29.7312 30.7419 29.0375 31.2533 28.5261C31.7648 28.0146 32.4585 27.7273 33.1818 27.7273H34.5455V25H37.2727V27.7273H48.1818V25H50.9091V27.7273H52.2727ZM47.5409 38.7182L41.4864 44.7727L37.8318 41.1182L39.2773 39.6727L41.4864 41.8818L46.0955 37.2727L47.5409 38.7182ZM27.7273 52.2727H46.8182V55H27.7273C27.004 55 26.3103 54.7127 25.7988 54.2012C25.2873 53.6897 25 52.996 25 52.2727V35.9091H27.7273V52.2727Z" fill="#004DD8"/>
<defs>
<linearGradient id="paint0_linear_7_135" x1="0" y1="0" x2="80" y2="80" gradientUnits="userSpaceOnUse">
<stop offset="0.29158" stop-color="#B5E0FF"/>
<stop offset="1" stop-color="#8FADF9"/>
</linearGradient>
</defs>
</svg>
