<svg width="80" height="80" viewBox="0 0 80 80" fill="none" xmlns="http://www.w3.org/2000/svg">
<rect width="80" height="80" rx="12" fill="url(#paint0_linear_7_137)"/>
<path d="M38.125 30.6251L39.0625 28.7501L40.9375 27.8126L39.0625 26.875L38.125 25L37.1875 26.875L35.3125 27.8126L37.1875 28.7501L38.125 30.6251ZM29.6875 34.3752L31.2496 31.2503L34.375 29.6876L31.2496 28.1249L29.6875 25L28.1254 28.1249L25 29.6876L28.1254 31.2503L29.6875 34.3752ZM50.3125 41.8753L48.7504 45.0002L45.625 46.5629L48.7504 48.1256L50.3125 51.2505L51.8746 48.1256L55 46.5629L51.8746 45.0002L50.3125 41.8753ZM54.4504 30.5214L49.4787 25.5496C49.1131 25.1828 48.6332 25 48.1533 25C47.6734 25 47.1936 25.1828 46.8273 25.5496L25.5496 46.8278C24.8172 47.5602 24.8172 48.7473 25.5496 49.4792L30.5213 54.451C30.8875 54.8172 31.3674 55 31.8467 55C32.3266 55 32.8064 54.8172 33.1727 54.451L54.4504 33.1722C55.1828 32.441 55.1828 31.2532 54.4504 30.5214ZM46.0615 36.9217L43.0785 33.9387L48.1527 28.8643L51.1357 31.8474L46.0615 36.9217Z" fill="#004DD8"/>
<defs>
<linearGradient id="paint0_linear_7_137" x1="0" y1="0" x2="80" y2="80" gradientUnits="userSpaceOnUse">
<stop offset="0.29158" stop-color="#B5E0FF"/>
<stop offset="1" stop-color="#8FADF9"/>
</linearGradient>
</defs>
</svg>
