<svg width="80" height="80" viewBox="0 0 80 80" fill="none" xmlns="http://www.w3.org/2000/svg">
<rect width="80" height="80" rx="12" fill="url(#paint0_linear_7_139)"/>
<path d="M55 33.7188C55 34.4173 54.8804 35.0798 54.6413 35.7061C54.4021 36.3324 54.056 36.8984 53.6029 37.4043C53.1497 37.9102 52.6274 38.3377 52.0358 38.687C51.4442 39.0363 50.7834 39.2712 50.0534 39.3916C49.9149 40.0781 49.6695 40.7104 49.3171 41.2886C48.9646 41.8667 48.5178 42.3665 47.9766 42.7881C47.4353 43.2096 46.8438 43.5348 46.2018 43.7637C45.5599 43.9925 44.8676 44.113 44.125 44.125H36.875C36.4722 44.125 36.0883 44.1852 35.7233 44.3057C35.3583 44.4261 35.0247 44.5947 34.7227 44.8115C34.4206 45.0283 34.1562 45.2873 33.9297 45.5884C33.7031 45.8895 33.5332 46.2267 33.4199 46.6001C34.0996 46.7567 34.7227 47.0096 35.2891 47.3589C35.8555 47.7082 36.3464 48.1357 36.7617 48.6416C37.1771 49.1475 37.498 49.7015 37.7246 50.3037C37.9512 50.9059 38.0707 51.5443 38.0833 52.2188C38.0833 53.0137 37.926 53.7604 37.6113 54.459C37.2967 55.1576 36.8624 55.7718 36.3086 56.3018C35.7548 56.8317 35.1128 57.2472 34.3828 57.5483C33.6528 57.8494 32.8724 58 32.0417 58C31.2109 58 30.4306 57.8494 29.7005 57.5483C28.9705 57.2472 28.3286 56.8377 27.7747 56.3198C27.2209 55.8019 26.7867 55.1877 26.472 54.4771C26.1573 53.7664 26 53.0137 26 52.2188C26 51.5322 26.1196 50.8758 26.3587 50.2495C26.5979 49.6232 26.9314 49.0632 27.3594 48.5693C27.7873 48.0755 28.2971 47.6479 28.8887 47.2866C29.4803 46.9253 30.1285 46.6844 30.8333 46.564V32.436C30.1285 32.3035 29.4803 32.0627 28.8887 31.7134C28.2971 31.3641 27.7873 30.9425 27.3594 30.4487C26.9314 29.9549 26.5979 29.3888 26.3587 28.7505C26.1196 28.1121 26 27.4557 26 26.7812C26 25.9863 26.1573 25.2396 26.472 24.541C26.7867 23.8424 27.2146 23.2342 27.7559 22.7163C28.2971 22.1984 28.939 21.7829 29.6816 21.4697C30.4243 21.1566 31.2109 21 32.0417 21C32.8724 21 33.6528 21.1506 34.3828 21.4517C35.1128 21.7528 35.7485 22.1683 36.2897 22.6982C36.8309 23.2282 37.2652 23.8424 37.5924 24.541C37.9197 25.2396 38.0833 25.9863 38.0833 26.7812C38.0833 27.4678 37.9638 28.1242 37.7246 28.7505C37.4855 29.3768 37.1519 29.9368 36.724 30.4307C36.296 30.9245 35.7862 31.3521 35.1947 31.7134C34.6031 32.0747 33.9549 32.3156 33.25 32.436V43.0049C33.7786 42.6195 34.3513 42.3244 34.9681 42.1196C35.5849 41.9149 36.2205 41.8125 36.875 41.8125H44.125C44.5278 41.8125 44.9117 41.7523 45.2767 41.6318C45.6417 41.5114 45.9753 41.3428 46.2773 41.126C46.5794 40.9092 46.8438 40.6502 47.0703 40.3491C47.2969 40.048 47.4668 39.7108 47.5801 39.3374C46.9004 39.1808 46.2773 38.9279 45.7109 38.5786C45.1445 38.2293 44.6536 37.8078 44.2383 37.314C43.8229 36.8201 43.502 36.2661 43.2754 35.6519C43.0488 35.0376 42.9293 34.3932 42.9167 33.7188C42.9167 32.9238 43.074 32.1771 43.3887 31.4785C43.7033 30.7799 44.1313 30.1717 44.6725 29.6538C45.2138 29.1359 45.8557 28.7204 46.5983 28.4072C47.3409 28.0941 48.1276 27.9375 48.9583 27.9375C49.7891 27.9375 50.5694 28.0881 51.2995 28.3892C52.0295 28.6903 52.6651 29.1058 53.2064 29.6357C53.7476 30.1657 54.1819 30.7799 54.5091 31.4785C54.8364 32.1771 55 32.9238 55 33.7188ZM28.4167 26.7812C28.4167 27.263 28.5111 27.7147 28.6999 28.1362C28.8887 28.5578 29.1467 28.9251 29.474 29.2383C29.8012 29.5514 30.1851 29.7983 30.6257 29.979C31.0662 30.1597 31.5382 30.25 32.0417 30.25C32.5451 30.25 33.0171 30.1597 33.4577 29.979C33.8982 29.7983 34.2821 29.5514 34.6094 29.2383C34.9366 28.9251 35.1947 28.5578 35.3835 28.1362C35.5723 27.7147 35.6667 27.263 35.6667 26.7812C35.6667 26.2995 35.5723 25.8478 35.3835 25.4263C35.1947 25.0047 34.9366 24.6374 34.6094 24.3242C34.2821 24.0111 33.8982 23.7642 33.4577 23.5835C33.0171 23.4028 32.5451 23.3125 32.0417 23.3125C31.5382 23.3125 31.0662 23.4028 30.6257 23.5835C30.1851 23.7642 29.8012 24.0111 29.474 24.3242C29.1467 24.6374 28.8887 25.0047 28.6999 25.4263C28.5111 25.8478 28.4167 26.2995 28.4167 26.7812ZM35.6667 52.2188C35.6667 51.737 35.5723 51.2853 35.3835 50.8638C35.1947 50.4422 34.9366 50.0749 34.6094 49.7617C34.2821 49.4486 33.8982 49.2017 33.4577 49.021C33.0171 48.8403 32.5451 48.75 32.0417 48.75C31.5382 48.75 31.0662 48.8403 30.6257 49.021C30.1851 49.2017 29.8012 49.4486 29.474 49.7617C29.1467 50.0749 28.8887 50.4422 28.6999 50.8638C28.5111 51.2853 28.4167 51.737 28.4167 52.2188C28.4167 52.7005 28.5111 53.1522 28.6999 53.5737C28.8887 53.9953 29.1467 54.3626 29.474 54.6758C29.8012 54.9889 30.1851 55.2358 30.6257 55.4165C31.0662 55.5972 31.5382 55.6875 32.0417 55.6875C32.5451 55.6875 33.0171 55.5972 33.4577 55.4165C33.8982 55.2358 34.2821 54.9889 34.6094 54.6758C34.9366 54.3626 35.1947 53.9953 35.3835 53.5737C35.5723 53.1522 35.6667 52.7005 35.6667 52.2188ZM48.9583 37.1875C49.4618 37.1875 49.9338 37.0972 50.3743 36.9165C50.8149 36.7358 51.1988 36.4889 51.526 36.1758C51.8533 35.8626 52.1113 35.4953 52.3001 35.0737C52.4889 34.6522 52.5833 34.2005 52.5833 33.7188C52.5833 33.237 52.4889 32.7853 52.3001 32.3638C52.1113 31.9422 51.8533 31.5749 51.526 31.2617C51.1988 30.9486 50.8149 30.7017 50.3743 30.521C49.9338 30.3403 49.4618 30.25 48.9583 30.25C48.4549 30.25 47.9829 30.3403 47.5423 30.521C47.1018 30.7017 46.7179 30.9486 46.3906 31.2617C46.0634 31.5749 45.8053 31.9422 45.6165 32.3638C45.4277 32.7853 45.3333 33.237 45.3333 33.7188C45.3333 34.2005 45.4277 34.6522 45.6165 35.0737C45.8053 35.4953 46.0634 35.8626 46.3906 36.1758C46.7179 36.4889 47.1018 36.7358 47.5423 36.9165C47.9829 37.0972 48.4549 37.1875 48.9583 37.1875Z" fill="#004DD8"/>
<defs>
<linearGradient id="paint0_linear_7_139" x1="0" y1="0" x2="80" y2="80" gradientUnits="userSpaceOnUse">
<stop offset="0.29158" stop-color="#B5E0FF"/>
<stop offset="1" stop-color="#8FADF9"/>
</linearGradient>
</defs>
</svg>
