<svg width="61" height="61" viewBox="0 0 61 61" fill="none" xmlns="http://www.w3.org/2000/svg">
<rect y="0.0778809" width="60" height="60" rx="15" transform="rotate(-0.0742912 0 0.0778809)" fill="#A1E0A3"/>
<path d="M30 15C31.377 15 32.7051 15.1758 33.9844 15.5273C35.2637 15.8789 36.4551 16.3867 37.5586 17.0508C38.6621 17.7148 39.6729 18.4961 40.5908 19.3945C41.5088 20.293 42.2949 21.3037 42.9492 22.4268C43.6035 23.5498 44.1064 24.7461 44.458 26.0156C44.8096 27.2852 44.9902 28.6133 45 30C45 31.377 44.8242 32.7051 44.4727 33.9844C44.1211 35.2637 43.6133 36.4551 42.9492 37.5586C42.2852 38.6621 41.5039 39.6729 40.6055 40.5908C39.707 41.5088 38.6963 42.2949 37.5732 42.9492C36.4502 43.6035 35.2539 44.1064 33.9844 44.458C32.7148 44.8096 31.3867 44.9902 30 45C28.623 45 27.2949 44.8242 26.0156 44.4727C24.7363 44.1211 23.5449 43.6133 22.4414 42.9492C21.3379 42.2852 20.3271 41.5039 19.4092 40.6055C18.4912 39.707 17.7051 38.6963 17.0508 37.5732C16.3965 36.4502 15.8936 35.2539 15.542 33.9844C15.1904 32.7148 15.0098 31.3867 15 30C15 28.623 15.1758 27.2949 15.5273 26.0156C15.8789 24.7363 16.3867 23.5449 17.0508 22.4414C17.7148 21.3379 18.4961 20.3271 19.3945 19.4092C20.293 18.4912 21.3037 17.7051 22.4268 17.0508C23.5498 16.3965 24.7461 15.8936 26.0156 15.542C27.2852 15.1904 28.6133 15.0098 30 15ZM38.833 25.0342L36.8408 23.042L27.1875 32.6953L23.1592 28.667L21.167 30.6592L27.1875 36.6797L38.833 25.0342Z" fill="#00A705"/>
</svg>
