<svg width="61" height="61" viewBox="0 0 61 61" fill="none" xmlns="http://www.w3.org/2000/svg">
<rect y="0.0778809" width="60" height="60" rx="15" transform="rotate(-0.0742912 0 0.0778809)" fill="#FFE0B3"/>
<path d="M42.6676 21.1067L36.9858 15.3375C36.8802 15.2304 36.7548 15.1454 36.6169 15.0875C36.4789 15.0296 36.3311 14.9999 36.1818 15H24.8182C24.2154 15 23.6373 15.2431 23.2111 15.6759C22.7849 16.1087 22.5455 16.6957 22.5455 17.3077V19.6154H20.2727C19.67 19.6154 19.0919 19.8585 18.6657 20.2913C18.2394 20.7241 18 21.311 18 21.9231V42.6923C18 43.3043 18.2394 43.8913 18.6657 44.3241C19.0919 44.7569 19.67 45 20.2727 45H36.1818C36.7846 45 37.3627 44.7569 37.7889 44.3241C38.2151 43.8913 38.4545 43.3043 38.4545 42.6923V40.3846H40.7273C41.33 40.3846 41.9081 40.1415 42.3343 39.7087C42.7606 39.2759 43 38.689 43 38.0769V21.9231C43.0001 21.7715 42.9708 21.6214 42.9138 21.4813C42.8568 21.3413 42.7731 21.214 42.6676 21.1067ZM31.6364 39.2308H24.8182C24.5168 39.2308 24.2278 39.1092 24.0147 38.8928C23.8015 38.6764 23.6818 38.3829 23.6818 38.0769C23.6818 37.7709 23.8015 37.4774 24.0147 37.261C24.2278 37.0446 24.5168 36.9231 24.8182 36.9231H31.6364C31.9377 36.9231 32.2268 37.0446 32.4399 37.261C32.653 37.4774 32.7727 37.7709 32.7727 38.0769C32.7727 38.3829 32.653 38.6764 32.4399 38.8928C32.2268 39.1092 31.9377 39.2308 31.6364 39.2308ZM31.6364 34.6154H24.8182C24.5168 34.6154 24.2278 34.4938 24.0147 34.2774C23.8015 34.061 23.6818 33.7676 23.6818 33.4615C23.6818 33.1555 23.8015 32.862 24.0147 32.6456C24.2278 32.4293 24.5168 32.3077 24.8182 32.3077H31.6364C31.9377 32.3077 32.2268 32.4293 32.4399 32.6456C32.653 32.862 32.7727 33.1555 32.7727 33.4615C32.7727 33.7676 32.653 34.061 32.4399 34.2774C32.2268 34.4938 31.9377 34.6154 31.6364 34.6154ZM40.7273 38.0769H38.4545V26.5385C38.4547 26.3869 38.4254 26.2368 38.3683 26.0967C38.3113 25.9566 38.2277 25.8294 38.1222 25.7221L32.4403 19.9529C32.3347 19.8458 32.2094 19.7608 32.0714 19.7029C31.9335 19.645 31.7856 19.6153 31.6364 19.6154H24.8182V17.3077H35.7116L40.7273 22.4005V38.0769Z" fill="#E28700"/>
</svg>
