<svg width="61" height="61" viewBox="0 0 61 61" fill="none" xmlns="http://www.w3.org/2000/svg">
<rect y="0.0777588" width="60" height="60" rx="15" transform="rotate(-0.0742912 0 0.0777588)" fill="#FDC3C3"/>
<path d="M18.966 36.3884C18.966 36.3884 16.1685 40.5608 17.8046 42.1953C19.4391 43.8314 23.6114 41.0339 23.6114 41.0339" fill="#D90000"/>
<path d="M18.966 36.3884C18.966 36.3884 16.1685 40.5608 17.8046 42.1953C19.4391 43.8314 23.6114 41.0339 23.6114 41.0339" stroke="#D90000" stroke-width="2" stroke-linecap="round" stroke-linejoin="round"/>
<path fill-rule="evenodd" clip-rule="evenodd" d="M44.5191 15.4806C44.7153 15.6768 44.8585 15.9195 44.9355 16.1861C45.0125 16.4527 45.0207 16.7344 44.9594 17.005L44.4386 19.308C43.8217 22.0298 42.4469 24.5214 40.4733 26.4947L32.8448 34.1233C34.5318 36.2127 35.0788 38.1971 34.6517 40.0894C34.2065 42.0606 32.7462 43.5161 31.8395 44.4212L31.7409 44.5197C31.5644 44.696 31.35 44.8298 31.114 44.9109C30.878 44.9919 30.6267 45.0182 30.3791 44.9876C30.1314 44.9571 29.894 44.8705 29.6848 44.7345C29.4757 44.5985 29.3002 44.4166 29.1718 44.2027L25.898 38.7408C25.829 38.626 25.7463 38.5201 25.6516 38.4254L21.43 34.207L20.1815 33.458L25.8635 27.1452C25.8673 27.148 25.8711 27.1507 25.875 27.1534L33.5035 19.5281C35.4772 17.5542 37.9694 16.1794 40.6917 15.5627L42.9947 15.0403C43.2655 14.9792 43.5473 14.9877 43.8139 15.0649C44.0804 15.1422 44.3231 15.2841 44.5191 15.4806ZM24.505 26.2006C22.9133 25.2725 21.384 25.0146 19.9105 25.3465C17.9393 25.7933 16.4839 27.252 15.5788 28.1604L15.4803 28.2573C15.304 28.4338 15.1702 28.6482 15.0891 28.8842C15.0081 29.1202 14.9818 29.3715 15.0124 29.6191C15.0429 29.8668 15.1295 30.1042 15.2655 30.3134C15.4015 30.5226 15.5834 30.698 15.7973 30.8264L18.7475 32.5972L24.505 26.2006Z" fill="#D90000"/>
</svg>
