<svg width="61" height="61" viewBox="0 0 61 61" fill="none" xmlns="http://www.w3.org/2000/svg">
<rect y="0.0777588" width="60" height="60" rx="15" transform="rotate(-0.0742912 0 0.0777588)" fill="url(#paint0_linear_8_645)"/>
<path d="M41.92 19.2857C41.92 18.7174 41.6924 18.1723 41.2874 17.7705C40.8823 17.3686 40.3329 17.1429 39.76 17.1429H35.44V15H33.28V17.1429H24.64V15H22.48V17.1429H18.16C17.5871 17.1429 17.0377 17.3686 16.6326 17.7705C16.2276 18.1723 16 18.7174 16 19.2857V40.7143C16 41.2826 16.2276 41.8277 16.6326 42.2295C17.0377 42.6314 17.5871 42.8571 18.16 42.8571H22.48V40.7143H18.16V19.2857H22.48V21.4286H24.64V19.2857H33.28V21.4286H35.44V19.2857H39.76V25.7143H41.92V19.2857Z" fill="#885400"/>
<path d="M34.36 28.9285L37.1129 34.2192L43 35.0667L38.68 39.1853L39.76 44.9999L34.36 42.2549L28.96 44.9999L30.04 39.1853L25.72 35.0667L31.768 34.2192L34.36 28.9285Z" fill="#885400"/>
<defs>
<linearGradient id="paint0_linear_8_645" x1="30" y1="0.0777588" x2="30" y2="60.0778" gradientUnits="userSpaceOnUse">
<stop stop-color="#C2852B"/>
<stop offset="0.66677" stop-color="#EBC25D"/>
<stop offset="1" stop-color="#FFE176"/>
</linearGradient>
</defs>
</svg>
